<svg width="17" height="17" viewBox="0 0 17 17" fill="none" xmlns="http://www.w3.org/2000/svg">
<path fill-rule="evenodd" clip-rule="evenodd" d="M10.5762 0.597591L15.9095 5.93092C16.0759 6.09867 16.1687 6.32577 16.1673 6.56204V13.6731C16.1673 15.1459 14.9734 16.3398 13.5006 16.3398H2.83398C1.36122 16.3398 0.167313 15.1459 0.167313 13.6731V3.00648C0.167313 1.53372 1.36122 0.339813 2.83398 0.339813H9.94509C10.064 0.342034 10.1815 0.366139 10.2918 0.410924C10.3977 0.454252 10.4943 0.517635 10.5762 0.597591ZM9.0562 2.11759H5.50065V3.89537H9.0562V2.11759ZM10.834 14.562H5.50065V11.8954C5.50065 11.4044 5.89862 11.0065 6.38953 11.0065H9.94509C10.436 11.0065 10.834 11.4044 10.834 11.8954V14.562ZM13.5006 14.562C13.9916 14.562 14.3895 14.1641 14.3895 13.6731V6.92648L10.834 3.37092V4.78426C10.834 5.27518 10.436 5.67315 9.94509 5.67315H4.61176C4.12084 5.67315 3.72287 5.27518 3.72287 4.78426V2.11759H2.83398C2.34306 2.11759 1.94509 2.51556 1.94509 3.00648V13.6731C1.94509 14.1641 2.34306 14.562 2.83398 14.562H3.72287V11.8954C3.72287 10.4226 4.91678 9.2287 6.38953 9.2287H9.94509C11.4178 9.2287 12.6118 10.4226 12.6118 11.8954V14.562H13.5006Z" fill="white"/>
</svg>
